<mxfile host="app.diagrams.net" agent="Mozilla/5.0 (Windows NT 10.0; Win64; x64) AppleWebKit/537.36 (KHTML, like Gecko) Chrome/121.0.0.0 Safari/537.36 Edg/121.0.0.0" version="24.7.7">
  <diagram name="Page-1" id="jH9X4JJsDZ_ZStQkH7_o">
    <mxGraphModel dx="3230" dy="2233" grid="1" gridSize="10" guides="1" tooltips="1" connect="1" arrows="1" fold="1" page="1" pageScale="1" pageWidth="850" pageHeight="1100" math="0" shadow="0">
      <root>
        <mxCell id="0" />
        <mxCell id="1" parent="0" />
        <mxCell id="jGQv9b9LemF5QD2wP8w_-19" value="Spire Product Owner" style="swimlane;horizontal=0;whiteSpace=wrap;html=1;startSize=40;fillColor=#FF8000;" parent="1" vertex="1">
          <mxGeometry x="-100" y="-247" width="2140" height="160" as="geometry" />
        </mxCell>
        <mxCell id="82_Ag931LT2ZOT2VYiMG-153" value="&lt;font style=&quot;font-size: 18px;&quot;&gt;Ticket Analysis, Breakdown &amp;amp; Handover&lt;/font&gt;" style="whiteSpace=wrap;html=1;aspect=fixed;fillColor=#FF8000;" parent="jGQv9b9LemF5QD2wP8w_-19" vertex="1">
          <mxGeometry x="240" y="7" width="113" height="113" as="geometry" />
        </mxCell>
        <mxCell id="S6yoY2dkq6S798GbpNvG-9" value="&lt;div&gt;&lt;font style=&quot;font-size: 18px;&quot;&gt;Handover to Infra Team&lt;/font&gt;&lt;/div&gt;" style="whiteSpace=wrap;html=1;aspect=fixed;spacing=1;fillColor=#FF8000;" vertex="1" parent="jGQv9b9LemF5QD2wP8w_-19">
          <mxGeometry x="1350" y="20" width="107" height="107" as="geometry" />
        </mxCell>
        <mxCell id="S6yoY2dkq6S798GbpNvG-17" style="edgeStyle=orthogonalEdgeStyle;rounded=0;orthogonalLoop=1;jettySize=auto;html=1;exitX=0.5;exitY=1;exitDx=0;exitDy=0;entryX=0.5;entryY=0;entryDx=0;entryDy=0;" edge="1" parent="jGQv9b9LemF5QD2wP8w_-19" source="S6yoY2dkq6S798GbpNvG-10" target="S6yoY2dkq6S798GbpNvG-11">
          <mxGeometry relative="1" as="geometry" />
        </mxCell>
        <mxCell id="S6yoY2dkq6S798GbpNvG-10" value="&lt;span style=&quot;font-size: 18px;&quot;&gt;Participate Consultation&lt;/span&gt;" style="whiteSpace=wrap;html=1;aspect=fixed;spacing=1;fillColor=#08F7FF;" vertex="1" parent="jGQv9b9LemF5QD2wP8w_-19">
          <mxGeometry x="1173.25" y="325.5" width="113.5" height="113.5" as="geometry" />
        </mxCell>
        <mxCell id="S6yoY2dkq6S798GbpNvG-16" style="edgeStyle=orthogonalEdgeStyle;rounded=0;orthogonalLoop=1;jettySize=auto;html=1;exitX=1;exitY=0.5;exitDx=0;exitDy=0;entryX=0;entryY=0.5;entryDx=0;entryDy=0;" edge="1" parent="jGQv9b9LemF5QD2wP8w_-19" source="S6yoY2dkq6S798GbpNvG-11" target="S6yoY2dkq6S798GbpNvG-9">
          <mxGeometry relative="1" as="geometry" />
        </mxCell>
        <mxCell id="S6yoY2dkq6S798GbpNvG-11" value="&lt;div&gt;&lt;font style=&quot;font-size: 18px;&quot;&gt;Approved&lt;/font&gt;&lt;/div&gt;" style="whiteSpace=wrap;html=1;aspect=fixed;spacing=1;align=center;verticalAlign=middle;horizontal=1;labelPosition=center;verticalLabelPosition=middle;fillColor=#B266FF;" vertex="1" parent="jGQv9b9LemF5QD2wP8w_-19">
          <mxGeometry x="1170" y="477.5" width="120" height="120" as="geometry" />
        </mxCell>
        <mxCell id="S6yoY2dkq6S798GbpNvG-14" style="edgeStyle=orthogonalEdgeStyle;rounded=0;orthogonalLoop=1;jettySize=auto;html=1;exitX=1;exitY=0.5;exitDx=0;exitDy=0;" edge="1" parent="jGQv9b9LemF5QD2wP8w_-19" source="S6yoY2dkq6S798GbpNvG-12">
          <mxGeometry relative="1" as="geometry">
            <mxPoint x="1170" y="537" as="targetPoint" />
          </mxGeometry>
        </mxCell>
        <mxCell id="S6yoY2dkq6S798GbpNvG-15" style="edgeStyle=orthogonalEdgeStyle;rounded=0;orthogonalLoop=1;jettySize=auto;html=1;exitX=0.5;exitY=0;exitDx=0;exitDy=0;entryX=0;entryY=0.5;entryDx=0;entryDy=0;" edge="1" parent="jGQv9b9LemF5QD2wP8w_-19" source="S6yoY2dkq6S798GbpNvG-12" target="S6yoY2dkq6S798GbpNvG-10">
          <mxGeometry relative="1" as="geometry" />
        </mxCell>
        <mxCell id="S6yoY2dkq6S798GbpNvG-12" value="" style="rhombus;whiteSpace=wrap;html=1;fillColor=#000000;" vertex="1" parent="jGQv9b9LemF5QD2wP8w_-19">
          <mxGeometry x="1020" y="487.5" width="80" height="80" as="geometry" />
        </mxCell>
        <mxCell id="jGQv9b9LemF5QD2wP8w_-20" value="Customer" style="swimlane;horizontal=0;whiteSpace=wrap;html=1;startSize=40;fillColor=#08F7FF;" parent="1" vertex="1">
          <mxGeometry x="-100" y="70" width="2140" height="130" as="geometry" />
        </mxCell>
        <mxCell id="S6yoY2dkq6S798GbpNvG-4" style="edgeStyle=orthogonalEdgeStyle;rounded=0;orthogonalLoop=1;jettySize=auto;html=1;exitX=1;exitY=0.5;exitDx=0;exitDy=0;entryX=0;entryY=0.5;entryDx=0;entryDy=0;" edge="1" parent="jGQv9b9LemF5QD2wP8w_-20" source="82_Ag931LT2ZOT2VYiMG-11" target="82_Ag931LT2ZOT2VYiMG-157">
          <mxGeometry relative="1" as="geometry" />
        </mxCell>
        <mxCell id="82_Ag931LT2ZOT2VYiMG-11" value="&lt;div&gt;&lt;font style=&quot;font-size: 18px;&quot;&gt;Prepare Deliverables&lt;/font&gt;&lt;/div&gt;" style="whiteSpace=wrap;html=1;aspect=fixed;spacing=1;fillColor=#08F7FF;" parent="jGQv9b9LemF5QD2wP8w_-20" vertex="1">
          <mxGeometry x="240" y="16.5" width="103.5" height="103.5" as="geometry" />
        </mxCell>
        <mxCell id="82_Ag931LT2ZOT2VYiMG-183" value="&lt;font style=&quot;font-size: 18px;&quot;&gt;Connection Confirmation&lt;/font&gt;" style="whiteSpace=wrap;html=1;aspect=fixed;spacing=1;fillColor=#08F7FF;" parent="jGQv9b9LemF5QD2wP8w_-20" vertex="1">
          <mxGeometry x="1940" y="6" width="116" height="116" as="geometry" />
        </mxCell>
        <mxCell id="82_Ag931LT2ZOT2VYiMG-157" value="&lt;div&gt;&lt;font style=&quot;font-size: 18px;&quot;&gt;Submit the Deliverables&lt;/font&gt;&lt;/div&gt;" style="whiteSpace=wrap;html=1;aspect=fixed;spacing=1;fillColor=#08F7FF;" parent="jGQv9b9LemF5QD2wP8w_-20" vertex="1">
          <mxGeometry x="440" y="13.75" width="109" height="109" as="geometry" />
        </mxCell>
        <mxCell id="82_Ag931LT2ZOT2VYiMG-224" value="&lt;div&gt;&lt;font style=&quot;font-size: 18px;&quot;&gt;Submit the Deliverables&lt;/font&gt;&lt;/div&gt;" style="whiteSpace=wrap;html=1;aspect=fixed;spacing=1;" parent="jGQv9b9LemF5QD2wP8w_-20" vertex="1">
          <mxGeometry x="5450" y="8.5" width="111.5" height="111.5" as="geometry" />
        </mxCell>
        <mxCell id="jGQv9b9LemF5QD2wP8w_-22" value="Spire Governance Team" style="swimlane;horizontal=0;whiteSpace=wrap;html=1;startSize=40;fillColor=#B266FF;" parent="1" vertex="1">
          <mxGeometry x="-100" y="211" width="2140" height="159" as="geometry" />
        </mxCell>
        <mxCell id="S6yoY2dkq6S798GbpNvG-13" style="edgeStyle=orthogonalEdgeStyle;rounded=0;orthogonalLoop=1;jettySize=auto;html=1;exitX=1;exitY=0.5;exitDx=0;exitDy=0;" edge="1" parent="jGQv9b9LemF5QD2wP8w_-22" source="82_Ag931LT2ZOT2VYiMG-159">
          <mxGeometry relative="1" as="geometry">
            <mxPoint x="1020" y="69" as="targetPoint" />
          </mxGeometry>
        </mxCell>
        <mxCell id="82_Ag931LT2ZOT2VYiMG-159" value="&lt;div&gt;&lt;font style=&quot;font-size: 18px;&quot;&gt;Arranging Approval Slot&lt;/font&gt;&lt;/div&gt;" style="whiteSpace=wrap;html=1;aspect=fixed;spacing=1;fillColor=#B266FF;" parent="jGQv9b9LemF5QD2wP8w_-22" vertex="1">
          <mxGeometry x="860" y="20" width="120" height="120" as="geometry" />
        </mxCell>
        <mxCell id="S6yoY2dkq6S798GbpNvG-8" style="edgeStyle=orthogonalEdgeStyle;rounded=0;orthogonalLoop=1;jettySize=auto;html=1;exitX=1;exitY=0.5;exitDx=0;exitDy=0;entryX=0;entryY=0.5;entryDx=0;entryDy=0;" edge="1" parent="jGQv9b9LemF5QD2wP8w_-22" source="82_Ag931LT2ZOT2VYiMG-160" target="82_Ag931LT2ZOT2VYiMG-159">
          <mxGeometry relative="1" as="geometry" />
        </mxCell>
        <mxCell id="82_Ag931LT2ZOT2VYiMG-160" value="&lt;div&gt;&lt;font style=&quot;font-size: 18px;&quot;&gt;Checking &amp;amp; Preparation&lt;/font&gt;&lt;/div&gt;" style="whiteSpace=wrap;html=1;aspect=fixed;spacing=1;fillColor=#B266FF;" parent="jGQv9b9LemF5QD2wP8w_-22" vertex="1">
          <mxGeometry x="650" y="23.5" width="113" height="113" as="geometry" />
        </mxCell>
        <mxCell id="82_Ag931LT2ZOT2VYiMG-256" style="edgeStyle=orthogonalEdgeStyle;rounded=0;orthogonalLoop=1;jettySize=auto;html=1;exitX=1;exitY=0.5;exitDx=0;exitDy=0;" parent="jGQv9b9LemF5QD2wP8w_-22" source="82_Ag931LT2ZOT2VYiMG-219" target="82_Ag931LT2ZOT2VYiMG-231" edge="1">
          <mxGeometry relative="1" as="geometry" />
        </mxCell>
        <mxCell id="82_Ag931LT2ZOT2VYiMG-219" value="&lt;div&gt;&lt;font style=&quot;font-size: 18px;&quot;&gt;Handover to Infra Team&lt;/font&gt;&lt;/div&gt;" style="whiteSpace=wrap;html=1;aspect=fixed;spacing=1;" parent="jGQv9b9LemF5QD2wP8w_-22" vertex="1">
          <mxGeometry x="5917" y="-406" width="103" height="103" as="geometry" />
        </mxCell>
        <mxCell id="82_Ag931LT2ZOT2VYiMG-254" style="edgeStyle=orthogonalEdgeStyle;rounded=0;orthogonalLoop=1;jettySize=auto;html=1;exitX=0.5;exitY=1;exitDx=0;exitDy=0;entryX=0.5;entryY=0;entryDx=0;entryDy=0;" parent="jGQv9b9LemF5QD2wP8w_-22" source="82_Ag931LT2ZOT2VYiMG-223" target="82_Ag931LT2ZOT2VYiMG-228" edge="1">
          <mxGeometry relative="1" as="geometry" />
        </mxCell>
        <mxCell id="82_Ag931LT2ZOT2VYiMG-223" value="&lt;span style=&quot;font-size: 18px;&quot;&gt;Approval Participation&lt;/span&gt;" style="whiteSpace=wrap;html=1;aspect=fixed;spacing=1;" parent="jGQv9b9LemF5QD2wP8w_-22" vertex="1">
          <mxGeometry x="5752" y="-129.5" width="113.5" height="113.5" as="geometry" />
        </mxCell>
        <mxCell id="82_Ag931LT2ZOT2VYiMG-226" value="&lt;div&gt;&lt;font style=&quot;font-size: 18px;&quot;&gt;Arranging Approval Slot&lt;/font&gt;&lt;/div&gt;" style="whiteSpace=wrap;html=1;aspect=fixed;spacing=1;" parent="jGQv9b9LemF5QD2wP8w_-22" vertex="1">
          <mxGeometry x="5320" y="25" width="110" height="110" as="geometry" />
        </mxCell>
        <mxCell id="82_Ag931LT2ZOT2VYiMG-253" style="edgeStyle=orthogonalEdgeStyle;rounded=0;orthogonalLoop=1;jettySize=auto;html=1;exitX=1;exitY=0.5;exitDx=0;exitDy=0;entryX=0;entryY=0.5;entryDx=0;entryDy=0;" parent="jGQv9b9LemF5QD2wP8w_-22" source="82_Ag931LT2ZOT2VYiMG-227" target="82_Ag931LT2ZOT2VYiMG-223" edge="1">
          <mxGeometry relative="1" as="geometry" />
        </mxCell>
        <mxCell id="82_Ag931LT2ZOT2VYiMG-227" value="&lt;div&gt;&lt;font style=&quot;font-size: 18px;&quot;&gt;Checking &amp;amp; Preparation&lt;/font&gt;&lt;/div&gt;" style="whiteSpace=wrap;html=1;aspect=fixed;spacing=1;" parent="jGQv9b9LemF5QD2wP8w_-22" vertex="1">
          <mxGeometry x="5581" y="20" width="113" height="113" as="geometry" />
        </mxCell>
        <mxCell id="82_Ag931LT2ZOT2VYiMG-255" style="edgeStyle=orthogonalEdgeStyle;rounded=0;orthogonalLoop=1;jettySize=auto;html=1;entryX=0;entryY=0.5;entryDx=0;entryDy=0;" parent="jGQv9b9LemF5QD2wP8w_-22" source="82_Ag931LT2ZOT2VYiMG-228" target="82_Ag931LT2ZOT2VYiMG-219" edge="1">
          <mxGeometry relative="1" as="geometry" />
        </mxCell>
        <mxCell id="82_Ag931LT2ZOT2VYiMG-228" value="&lt;div&gt;&lt;font style=&quot;font-size: 18px;&quot;&gt;Approved&lt;/font&gt;&lt;/div&gt;" style="whiteSpace=wrap;html=1;aspect=fixed;spacing=1;align=center;verticalAlign=middle;horizontal=1;labelPosition=center;verticalLabelPosition=middle;" parent="jGQv9b9LemF5QD2wP8w_-22" vertex="1">
          <mxGeometry x="5756" y="10" width="120" height="120" as="geometry" />
        </mxCell>
        <mxCell id="82_Ag931LT2ZOT2VYiMG-230" value="&lt;div&gt;&lt;font style=&quot;font-size: 18px;&quot;&gt;Establish Int/Prod Connection&lt;/font&gt;&lt;/div&gt;" style="whiteSpace=wrap;html=1;aspect=fixed;spacing=1;" parent="jGQv9b9LemF5QD2wP8w_-22" vertex="1">
          <mxGeometry x="6200" y="177" width="113" height="113" as="geometry" />
        </mxCell>
        <mxCell id="82_Ag931LT2ZOT2VYiMG-258" style="edgeStyle=orthogonalEdgeStyle;rounded=0;orthogonalLoop=1;jettySize=auto;html=1;" parent="jGQv9b9LemF5QD2wP8w_-22" source="82_Ag931LT2ZOT2VYiMG-231" target="82_Ag931LT2ZOT2VYiMG-230" edge="1">
          <mxGeometry relative="1" as="geometry" />
        </mxCell>
        <mxCell id="82_Ag931LT2ZOT2VYiMG-231" value="&lt;span style=&quot;font-size: 18px;&quot;&gt;Int/Prod&lt;/span&gt;&lt;div&gt;&lt;span style=&quot;font-size: 18px;&quot;&gt;Connection Being Established&lt;/span&gt;&lt;/div&gt;" style="whiteSpace=wrap;html=1;aspect=fixed;spacing=1;" parent="jGQv9b9LemF5QD2wP8w_-22" vertex="1">
          <mxGeometry x="6067" y="178" width="110" height="110" as="geometry" />
        </mxCell>
        <mxCell id="82_Ag931LT2ZOT2VYiMG-34" value="Spire Infrastructure Team" style="swimlane;horizontal=0;whiteSpace=wrap;html=1;startSize=40;fillColor=#11FF00;" parent="1" vertex="1">
          <mxGeometry x="-100" y="383" width="2140" height="147" as="geometry" />
        </mxCell>
        <mxCell id="S6yoY2dkq6S798GbpNvG-18" style="edgeStyle=orthogonalEdgeStyle;rounded=0;orthogonalLoop=1;jettySize=auto;html=1;exitX=1;exitY=0.5;exitDx=0;exitDy=0;" edge="1" parent="82_Ag931LT2ZOT2VYiMG-34" source="82_Ag931LT2ZOT2VYiMG-18">
          <mxGeometry relative="1" as="geometry">
            <mxPoint x="1990" y="-193" as="targetPoint" />
          </mxGeometry>
        </mxCell>
        <mxCell id="82_Ag931LT2ZOT2VYiMG-18" value="&lt;div&gt;&lt;font style=&quot;font-size: 18px;&quot;&gt;Establish Production&lt;/font&gt;&lt;/div&gt;&lt;div&gt;&lt;font style=&quot;font-size: 18px;&quot;&gt;Connection&lt;/font&gt;&lt;/div&gt;" style="whiteSpace=wrap;html=1;aspect=fixed;spacing=1;fillColor=#11FF00;" parent="82_Ag931LT2ZOT2VYiMG-34" vertex="1">
          <mxGeometry x="1770" y="16" width="109" height="109" as="geometry" />
        </mxCell>
        <mxCell id="S6yoY2dkq6S798GbpNvG-19" style="edgeStyle=orthogonalEdgeStyle;rounded=0;orthogonalLoop=1;jettySize=auto;html=1;exitX=1;exitY=0.5;exitDx=0;exitDy=0;" edge="1" parent="82_Ag931LT2ZOT2VYiMG-34" source="82_Ag931LT2ZOT2VYiMG-180" target="82_Ag931LT2ZOT2VYiMG-18">
          <mxGeometry relative="1" as="geometry" />
        </mxCell>
        <mxCell id="82_Ag931LT2ZOT2VYiMG-180" value="&lt;span style=&quot;font-size: 18px;&quot;&gt;Production Connection Being Established&lt;/span&gt;" style="whiteSpace=wrap;html=1;aspect=fixed;spacing=1;fillColor=#11FF00;" parent="82_Ag931LT2ZOT2VYiMG-34" vertex="1">
          <mxGeometry x="1580" y="17.5" width="110" height="110" as="geometry" />
        </mxCell>
        <mxCell id="82_Ag931LT2ZOT2VYiMG-95" value="Spire Service Desk" style="swimlane;horizontal=0;whiteSpace=wrap;html=1;startSize=40;fillColor=#BFBFBF;" parent="1" vertex="1">
          <mxGeometry x="-100" y="-70" width="2140" height="131" as="geometry" />
        </mxCell>
        <mxCell id="jGQv9b9LemF5QD2wP8w_-2" value="&lt;div&gt;&lt;font style=&quot;font-size: 18px;&quot;&gt;Raise DEV Connection Request&lt;/font&gt;&lt;/div&gt;" style="whiteSpace=wrap;html=1;aspect=fixed;spacing=1;fillColor=#BFBFBF;" parent="82_Ag931LT2ZOT2VYiMG-95" vertex="1">
          <mxGeometry x="90" y="12.75" width="104.5" height="104.5" as="geometry" />
        </mxCell>
        <mxCell id="S6yoY2dkq6S798GbpNvG-5" value="&lt;font style=&quot;font-size: 18px;&quot;&gt;Governance&amp;nbsp;&lt;/font&gt;&lt;div&gt;&lt;span style=&quot;font-size: 18px; background-color: initial;&quot;&gt;Approval&amp;nbsp;&lt;/span&gt;&lt;div&gt;&lt;font style=&quot;font-size: 18px;&quot;&gt;Consultation&lt;/font&gt;&lt;/div&gt;&lt;/div&gt;" style="whiteSpace=wrap;html=1;aspect=fixed;spacing=1;fillColor=#BFBFBF;" vertex="1" parent="82_Ag931LT2ZOT2VYiMG-95">
          <mxGeometry x="650" y="12.75" width="110" height="110" as="geometry" />
        </mxCell>
        <mxCell id="82_Ag931LT2ZOT2VYiMG-198" value="" style="endArrow=none;dashed=1;html=1;dashPattern=1 3;strokeWidth=2;rounded=0;" parent="1" edge="1">
          <mxGeometry width="50" height="50" relative="1" as="geometry">
            <mxPoint x="3480" y="550" as="sourcePoint" />
            <mxPoint x="3480" y="-240" as="targetPoint" />
          </mxGeometry>
        </mxCell>
        <mxCell id="82_Ag931LT2ZOT2VYiMG-250" style="edgeStyle=orthogonalEdgeStyle;rounded=0;orthogonalLoop=1;jettySize=auto;html=1;entryX=0;entryY=0.5;entryDx=0;entryDy=0;exitX=0.5;exitY=1;exitDx=0;exitDy=0;" parent="1" source="82_Ag931LT2ZOT2VYiMG-224" target="82_Ag931LT2ZOT2VYiMG-227" edge="1">
          <mxGeometry relative="1" as="geometry" />
        </mxCell>
        <mxCell id="82_Ag931LT2ZOT2VYiMG-252" style="edgeStyle=orthogonalEdgeStyle;rounded=0;orthogonalLoop=1;jettySize=auto;html=1;entryX=0;entryY=0.5;entryDx=0;entryDy=0;exitX=0.5;exitY=0;exitDx=0;exitDy=0;" parent="1" source="82_Ag931LT2ZOT2VYiMG-226" target="82_Ag931LT2ZOT2VYiMG-224" edge="1">
          <mxGeometry relative="1" as="geometry" />
        </mxCell>
        <mxCell id="S6yoY2dkq6S798GbpNvG-1" style="edgeStyle=orthogonalEdgeStyle;rounded=0;orthogonalLoop=1;jettySize=auto;html=1;exitX=0.5;exitY=0;exitDx=0;exitDy=0;entryX=0;entryY=0.5;entryDx=0;entryDy=0;" edge="1" parent="1" source="jGQv9b9LemF5QD2wP8w_-2" target="82_Ag931LT2ZOT2VYiMG-153">
          <mxGeometry relative="1" as="geometry" />
        </mxCell>
        <mxCell id="S6yoY2dkq6S798GbpNvG-2" style="edgeStyle=orthogonalEdgeStyle;rounded=0;orthogonalLoop=1;jettySize=auto;html=1;exitX=0.5;exitY=1;exitDx=0;exitDy=0;entryX=0.5;entryY=0;entryDx=0;entryDy=0;" edge="1" parent="1" source="82_Ag931LT2ZOT2VYiMG-153" target="82_Ag931LT2ZOT2VYiMG-11">
          <mxGeometry relative="1" as="geometry" />
        </mxCell>
        <mxCell id="S6yoY2dkq6S798GbpNvG-3" value="&lt;span style=&quot;font-size: 24px;&quot;&gt;&lt;b&gt;Production Data Load&amp;nbsp;&lt;/b&gt;&lt;/span&gt;" style="text;html=1;align=center;verticalAlign=middle;whiteSpace=wrap;rounded=0;strokeColor=none;rotation=270;" vertex="1" parent="1">
          <mxGeometry x="-490" y="70" width="580" height="180" as="geometry" />
        </mxCell>
        <mxCell id="S6yoY2dkq6S798GbpNvG-6" style="edgeStyle=orthogonalEdgeStyle;rounded=0;orthogonalLoop=1;jettySize=auto;html=1;exitX=1;exitY=0.5;exitDx=0;exitDy=0;entryX=0;entryY=0.5;entryDx=0;entryDy=0;" edge="1" parent="1" source="82_Ag931LT2ZOT2VYiMG-157" target="S6yoY2dkq6S798GbpNvG-5">
          <mxGeometry relative="1" as="geometry" />
        </mxCell>
        <mxCell id="S6yoY2dkq6S798GbpNvG-7" style="edgeStyle=orthogonalEdgeStyle;rounded=0;orthogonalLoop=1;jettySize=auto;html=1;entryX=0.5;entryY=0;entryDx=0;entryDy=0;" edge="1" parent="1" source="S6yoY2dkq6S798GbpNvG-5" target="82_Ag931LT2ZOT2VYiMG-160">
          <mxGeometry relative="1" as="geometry" />
        </mxCell>
        <mxCell id="S6yoY2dkq6S798GbpNvG-20" style="edgeStyle=orthogonalEdgeStyle;rounded=0;orthogonalLoop=1;jettySize=auto;html=1;exitX=1;exitY=0.5;exitDx=0;exitDy=0;entryX=0;entryY=0.5;entryDx=0;entryDy=0;" edge="1" parent="1" source="S6yoY2dkq6S798GbpNvG-9" target="82_Ag931LT2ZOT2VYiMG-180">
          <mxGeometry relative="1" as="geometry" />
        </mxCell>
      </root>
    </mxGraphModel>
  </diagram>
</mxfile>
